<svg width="33" height="33" viewBox="0 0 33 33" fill="none" xmlns="http://www.w3.org/2000/svg">
<path d="M2.0625 15.9844H6.1875V14.9531H2.0625V12.2135L6.88824 10.3575L6.51801 9.39496L1.36176 11.3781C1.26449 11.4155 1.18083 11.4816 1.12183 11.5675C1.06283 11.6534 1.03125 11.7552 1.03125 11.8594V17.0156H2.0625V15.9844ZM30.9375 18.5625H24.75C24.6132 18.5625 24.4821 18.6168 24.3854 18.7135C24.2887 18.8102 24.2344 18.9414 24.2344 19.0781V23.2031C24.2344 23.3399 24.2887 23.471 24.3854 23.5677C24.4821 23.6644 24.6132 23.7188 24.75 23.7188H30.9375V29.1555L24.9351 26.8469C24.8174 26.8016 24.6871 26.801 24.5689 26.8453L19.0781 28.9044V26.2969C19.0781 26.2094 19.0559 26.1234 19.0135 26.0469C18.9711 25.9704 18.9099 25.906 18.8358 25.8596L14.7108 23.2815C14.6288 23.2303 14.5341 23.2031 14.4375 23.2031H12.375C12.2382 23.2031 12.1071 23.2574 12.0104 23.3541C11.9137 23.4508 11.8594 23.582 11.8594 23.7188V28.1309L8.76562 26.9708V23.7188C8.76562 23.582 8.7113 23.4508 8.6146 23.3541C8.5179 23.2574 8.38675 23.2031 8.25 23.2031H2.0625V20.1094H10.3125C10.4493 20.1094 10.5804 20.0551 10.6771 19.9584C10.7738 19.8617 10.8281 19.7305 10.8281 19.5938V17.0156H9.79688V19.0781H2.0625V18.0469H1.03125V30.4219C1.03125 30.5084 1.05302 30.5935 1.09457 30.6694C1.13611 30.7453 1.19609 30.8096 1.26898 30.8562C1.34186 30.9028 1.42531 30.9304 1.51164 30.9363C1.59796 30.9422 1.68439 30.9263 1.76295 30.89L8.27058 27.8865L16.3189 30.9047C16.4357 30.9484 16.5643 30.9484 16.6811 30.9047L24.7477 27.8797L31.268 30.3875C31.3461 30.4176 31.4304 30.4281 31.5135 30.4183C31.5966 30.4086 31.6761 30.3787 31.745 30.3313C31.814 30.2839 31.8704 30.2205 31.9094 30.1464C31.9484 30.0724 31.9688 29.9899 31.9688 29.9062V17.5312H30.9375V18.5625ZM2.0625 24.2344H7.73438V26.9982L2.0625 29.616V24.2344ZM16.5 29.8712L12.8906 28.5177V24.2344H14.2896L18.0469 26.5827V29.2911L16.5 29.8712ZM25.2656 22.6875V19.5938H30.9375V22.6875H25.2656Z" fill="black"/>
<path d="M31.6382 11.3781L24.9351 8.79998C24.8266 8.75826 24.7072 8.75443 24.5962 8.78909L16.5 11.3192L15.1069 10.8838L14.7993 11.8681L16.3462 12.3515C16.4463 12.3828 16.5537 12.3828 16.6538 12.3515L20.1094 11.2716V21.724L16.2704 19.1647C16.1857 19.1082 16.0862 19.0781 15.9844 19.0781H14.9531V17.0156H13.9219V19.5937C13.9219 19.7305 13.9762 19.8616 14.0729 19.9583C14.1696 20.055 14.3007 20.1094 14.4375 20.1094H15.8282L20.339 23.1165C20.4166 23.1683 20.5069 23.198 20.6001 23.2025C20.6933 23.207 20.786 23.1861 20.8683 23.1421C20.9506 23.098 21.0194 23.0325 21.0673 22.9524C21.1153 22.8724 21.1406 22.7808 21.1406 22.6875V10.9494L24.2344 9.98258V14.9531C24.2344 15.0899 24.2887 15.221 24.3854 15.3177C24.4821 15.4144 24.6132 15.4687 24.75 15.4687H30.9375V16.5H31.9688V11.8594C31.9688 11.7551 31.9372 11.6534 31.8782 11.5674C31.8192 11.4815 31.7355 11.4155 31.6382 11.3781ZM25.2656 14.4375V10.032L30.9375 12.2135V14.4375H25.2656Z" fill="black"/>
<path d="M9.34641 12.0983C8.02801 12.4405 7.21875 13.1135 7.21875 13.9219C7.21875 14.2881 7.39669 14.9789 8.58844 15.4896C9.3329 15.8087 10.3114 15.9844 11.3438 15.9844C12.3761 15.9844 13.3546 15.8087 14.0991 15.4896C15.2908 14.9789 15.4688 14.2881 15.4688 13.9219C15.4688 13.1053 14.6729 12.4387 13.3419 12.0973C13.4951 11.9206 13.6518 11.7333 13.8089 11.537C15.2524 9.73252 15.9844 8.10618 15.9844 6.70312C15.9844 5.47235 15.4955 4.29199 14.6252 3.42171C13.7549 2.55142 12.5745 2.0625 11.3438 2.0625C10.113 2.0625 8.93262 2.55142 8.06233 3.42171C7.19205 4.29199 6.70313 5.47235 6.70312 6.70312C6.70313 8.10618 7.43505 9.73252 8.8786 11.537C9.03595 11.7336 9.19299 11.9213 9.34641 12.0983ZM14.4375 13.9219C14.4375 14.2854 13.2629 14.9531 11.3438 14.9531C9.42457 14.9531 8.25 14.2854 8.25 13.9219C8.25 13.6495 8.92714 13.18 10.1596 12.9819C10.6396 13.4738 10.9796 13.7728 11.0042 13.7943C11.0982 13.8765 11.2189 13.9219 11.3438 13.9219C11.4686 13.9219 11.5893 13.8765 11.6833 13.7943C11.7079 13.7728 12.048 13.4737 12.528 12.9819C13.875 13.1964 14.4375 13.6935 14.4375 13.9219ZM11.3438 3.09375C12.3007 3.09483 13.2181 3.47546 13.8948 4.15211C14.5714 4.82876 14.952 5.74619 14.9531 6.70312C14.9531 7.84652 14.2825 9.29092 13.0137 10.8801C12.4968 11.5231 11.9389 12.132 11.3436 12.7031C10.7522 12.1358 10.1978 11.5311 9.6839 10.8927C8.40849 9.2985 7.73438 7.84978 7.73438 6.70312C7.73546 5.74619 8.11608 4.82876 8.79273 4.15211C9.46939 3.47546 10.3868 3.09483 11.3438 3.09375Z" fill="black"/>
<path d="M11.3438 8.76563C11.7517 8.76563 12.1504 8.64466 12.4896 8.41803C12.8288 8.1914 13.0931 7.86928 13.2493 7.49241C13.4054 7.11554 13.4462 6.70084 13.3666 6.30075C13.287 5.90067 13.0906 5.53316 12.8022 5.24472C12.5137 4.95627 12.1462 4.75984 11.7461 4.68026C11.346 4.60067 10.9313 4.64152 10.5545 4.79762C10.1776 4.95373 9.85547 5.21809 9.62884 5.55726C9.40221 5.89644 9.28125 6.2952 9.28125 6.70313C9.28187 7.24995 9.49936 7.77419 9.88602 8.16085C10.2727 8.54751 10.7969 8.76501 11.3438 8.76563ZM11.3438 5.67188C11.5477 5.67188 11.7471 5.73236 11.9167 5.84567C12.0863 5.95899 12.2184 6.12005 12.2965 6.30848C12.3746 6.49692 12.395 6.70427 12.3552 6.90431C12.3154 7.10436 12.2172 7.28811 12.073 7.43233C11.9287 7.57655 11.745 7.67477 11.5449 7.71456C11.3449 7.75435 11.1375 7.73393 10.9491 7.65588C10.7607 7.57782 10.5996 7.44565 10.4863 7.27606C10.373 7.10647 10.3125 6.90709 10.3125 6.70313C10.3128 6.42972 10.4216 6.1676 10.6149 5.97427C10.8082 5.78094 11.0703 5.67219 11.3438 5.67188Z" fill="black"/>
</svg>
