<svg width="122" height="76" viewBox="0 0 122 76" fill="none" xmlns="http://www.w3.org/2000/svg">
<path fill-rule="evenodd" clip-rule="evenodd" d="M27.1791 19.644C36.9992 26.7327 35.3818 51.6576 35.3818 51.6576C35.3818 51.6576 11.1204 52.6866 3.72648 43.0825C-3.66746 33.4784 2.2246 23.9887 2.2246 23.9887C2.2246 23.9887 5.69051 17.4452 13.7776 16.2139C21.8647 14.9826 27.1791 19.644 27.1791 19.644ZM10.0119 24.835C11.2551 23.5659 12.9081 22.8669 14.6663 22.8669C16.4245 22.8669 18.0775 23.5659 19.3206 24.835C21.2123 26.7661 21.7617 29.6451 20.7571 32.1384L29.7994 41.3694L29.8068 45.0402L23.3308 45.0478V42.4995H20.8353V39.952H18.3398V37.0026L17.1656 35.8039C16.3765 36.1333 15.5216 36.3059 14.6659 36.3059C12.9079 36.3059 11.255 35.607 10.0119 34.3379C7.44551 31.718 7.44551 27.455 10.0119 24.835ZM16.8674 29.6126C16.8674 30.8124 15.8847 31.785 14.6723 31.785C13.46 31.785 12.4773 30.8124 12.4773 29.6126C12.4773 28.4129 13.46 27.4403 14.6723 27.4403C15.8847 27.4403 16.8674 28.4129 16.8674 29.6126Z" fill="#404040"/>
<path d="M47.5 0H49.3485V56.5H47.5V0Z" fill="#404040"/>
<path d="M61.2311 47.0333V46.0922L61.9928 46.0169C62.8816 45.9165 63.5545 45.791 64.0115 45.6405C64.494 45.4648 64.8241 45.1134 65.0018 44.5864C65.1796 44.0343 65.2684 43.1434 65.2684 41.9136V25.1993C65.2684 23.9445 65.1796 23.0536 65.0018 22.5265C64.8241 21.9995 64.494 21.6607 64.0115 21.5101C63.5545 21.3345 62.8816 21.1964 61.9928 21.096L61.2311 21.0208V20.0796L66.8682 20.1926H69.0011L78.0662 41.9136L88.0834 20.1926H90.3687L95.7011 20.0796V21.0208L94.9393 21.096C94.076 21.1964 93.4031 21.3345 92.9207 21.5101C92.4382 21.6607 92.1081 21.9995 91.9304 22.5265C91.7526 23.0536 91.6637 23.9445 91.6637 25.1993V41.9136C91.6637 43.1434 91.7526 44.0343 91.9304 44.5864C92.1081 45.1385 92.4382 45.4899 92.9207 45.6405C93.4031 45.791 94.076 45.9165 94.9393 46.0169L95.7011 46.0922V47.0333L90.064 46.9204L84.3888 47.0333V46.0922L85.1506 46.0169C86.0393 45.9165 86.7122 45.791 87.1693 45.6405C87.6517 45.4899 87.9818 45.1385 88.1596 44.5864C88.3373 44.0343 88.4262 43.1434 88.4262 41.9136V22.5642L77.152 46.9204H76.4284L66.6015 22.9406V42.9677C66.6015 43.7708 66.7031 44.3731 66.9062 44.7746C67.1094 45.1762 67.4395 45.4648 67.8965 45.6405C68.379 45.791 69.0392 45.9165 69.8771 46.0169L70.6389 46.0922V47.0333L65.8017 46.9204L61.2311 47.0333Z" fill="#404040"/>
<path d="M112.097 47.3345C109.507 47.3345 107.272 46.7447 105.393 45.5652C103.54 44.3856 102.105 42.7669 101.089 40.709C100.099 38.626 99.604 36.2418 99.604 33.5565C99.604 31.5488 99.9341 29.7042 100.594 28.0227C101.255 26.3412 102.169 24.8731 103.337 23.6182C104.505 22.3634 105.851 21.3972 107.374 20.7196C108.923 20.0169 110.573 19.6655 112.326 19.6655C113.874 19.6655 115.144 19.8412 116.134 20.1926C117.15 20.5188 117.912 20.8074 118.42 21.0584C118.75 21.209 119.054 21.347 119.334 21.4725C119.613 21.5729 119.804 21.6231 119.905 21.6231C120.184 21.6231 120.413 21.5227 120.591 21.3219C120.768 21.096 120.883 20.7196 120.934 20.1926H121.886L121.81 24.597L121.886 29.0015H120.934C120.553 26.3914 119.639 24.3711 118.191 22.9406C116.744 21.5101 114.827 20.7949 112.44 20.7949C110.764 20.7949 109.355 21.1337 108.212 21.8113C107.069 22.4638 106.155 23.3798 105.47 24.5594C104.784 25.7138 104.276 27.069 103.946 28.625C103.641 30.1559 103.489 31.7997 103.489 33.5565C103.489 36.1916 103.768 38.4503 104.327 40.3325C104.911 42.2148 105.851 43.6704 107.146 44.6993C108.466 45.7032 110.231 46.2051 112.44 46.2051C114.09 46.2051 115.525 45.8287 116.744 45.0758C117.963 44.3229 118.94 43.319 119.677 42.0642C120.438 40.8094 120.895 39.4291 121.048 37.9233H121.962L121.886 42.5159L122 46.9204H121.086L120.972 46.5063C120.87 46.18 120.743 45.8789 120.591 45.6028C120.464 45.3017 120.235 45.1511 119.905 45.1511C119.727 45.1511 119.512 45.2013 119.258 45.3017C119.029 45.4021 118.762 45.5275 118.458 45.6781C117.798 46.0044 116.934 46.3683 115.868 46.7698C114.801 47.1463 113.544 47.3345 112.097 47.3345Z" fill="#404040"/>
<path d="M7.75259 66.706L8.42165 73.4801H7.51895L7.15256 69.3065C7.103 68.7275 7.07822 68.16 7.07822 67.6042C6.86936 68.2725 6.6428 68.8962 6.39854 69.4752L4.71527 73.4801H3.70106L1.93815 69.3065C1.71513 68.7771 1.50981 68.2097 1.32219 67.6042C1.32219 68.2031 1.29918 68.7705 1.25316 69.3065L0.897388 73.4801H0L0.658439 66.706H1.74699L3.8816 71.7581C3.97718 71.9797 4.08692 72.3222 4.21082 72.7854C4.32764 72.3354 4.45154 71.9533 4.58252 71.639L6.65873 66.706H7.75259Z" fill="#404040"/>
<path d="M15.3085 66.5471C16.4059 66.5471 17.2679 66.8714 17.8945 67.5199C18.521 68.165 18.8343 69.0517 18.8343 70.1799C18.8343 71.2353 18.5069 72.0906 17.852 72.7457C17.2006 73.4007 16.351 73.7283 15.3032 73.7283C14.2199 73.7283 13.3597 73.4107 12.7225 72.7754C12.0853 72.1369 11.7667 71.2767 11.7667 70.1948C11.7667 69.1096 12.0924 68.2312 12.7438 67.5596C13.3987 66.8846 14.2536 66.5471 15.3085 66.5471ZM15.3085 67.2916C14.5651 67.2916 13.958 67.5612 13.4872 68.1005C13.0163 68.6398 12.7809 69.3362 12.7809 70.1898C12.7809 71.0335 13.0146 71.7101 13.4819 72.2196C13.9491 72.7291 14.5686 72.9839 15.3404 72.9839C16.066 72.9839 16.6608 72.7208 17.1245 72.1948C17.5882 71.6654 17.8201 70.9872 17.8201 70.16C17.8201 69.2767 17.5936 68.5786 17.1404 68.0658C16.6909 67.5496 16.0802 67.2916 15.3085 67.2916Z" fill="#404040"/>
<path d="M22.6892 72.6861H23.5281L25.976 66.706H26.9584L29.2258 72.6861H30.0966V75.1278H29.1408V73.4801H23.645V75.1278H22.6892V72.6861ZM24.4786 72.6861H28.3231L26.8787 68.6365C26.7088 68.1534 26.569 67.6687 26.4593 67.1824C26.3885 67.5 26.2256 68.0012 25.9707 68.6861L24.4786 72.6861Z" fill="#404040"/>
<path d="M40.5889 66.706L37.8012 71.773C37.1534 72.9475 36.348 73.5347 35.3851 73.5347C35.1904 73.5347 34.9727 73.5066 34.732 73.4504V72.7804L34.8488 72.7854L35.194 72.7903C35.9091 72.7903 36.4737 72.4611 36.8879 71.8027L37.1746 71.3511L34.5409 66.706H35.5763L37.2596 69.8474C37.3764 70.0691 37.495 70.3519 37.6153 70.696C37.7605 70.3056 37.9109 69.9599 38.0667 69.6588L39.596 66.706H40.5889Z" fill="#404040"/>
<path d="M45.2509 73.4801L48.1395 66.706H49.159L51.9096 73.4801H50.9432L49.2068 69.0236C49.1148 68.792 49.0652 68.6646 49.0582 68.6414L48.8617 68.0955C48.7484 67.7878 48.667 67.5199 48.6174 67.2916C48.5183 67.7481 48.3714 68.2146 48.1767 68.6911L48.0439 69.0236L46.2492 73.4801H45.2509Z" fill="#404040"/>
<path d="M58.6425 66.706V69.5447H59.6408C60.5045 69.5447 61.163 69.7151 61.6161 70.0558C62.0727 70.3966 62.3011 70.8912 62.3011 71.5397C62.3011 72.1551 62.0621 72.6332 61.5842 72.9739C61.1063 73.3114 60.4337 73.4801 59.5664 73.4801H57.7079V66.706H58.6425ZM58.6637 70.3387V72.6861H59.5186C60.6974 72.6861 61.2869 72.2924 61.2869 71.505C61.2869 70.7275 60.678 70.3387 59.4602 70.3387H58.6637Z" fill="#404040"/>
<path d="M77.8748 68.3834H76.9031C76.627 67.6522 75.9739 67.2866 74.9437 67.2866C74.1897 67.2866 73.5826 67.5546 73.1224 68.0906C72.6657 68.6266 72.4374 69.3346 72.4374 70.2146C72.4374 71.0484 72.664 71.7184 73.1171 72.2246C73.5737 72.7275 74.1773 72.9789 74.9278 72.9789C76.0004 72.9789 76.696 72.5455 77.0146 71.6787H77.9598C77.8076 72.3238 77.4589 72.8267 76.9137 73.1873C76.3686 73.5447 75.6818 73.7233 74.8534 73.7233C73.8021 73.7233 72.9666 73.4107 72.3471 72.7854C71.7312 72.1601 71.4232 71.3147 71.4232 70.2494C71.4232 69.1079 71.7383 68.2047 72.3684 67.5397C72.9985 66.8747 73.8516 66.5422 74.9278 66.5422C76.5668 66.5422 77.5492 67.1559 77.8748 68.3834Z" fill="#404040"/>
<path d="M88.7017 66.706V67.5H86.206V73.4801H85.2502V67.5H82.7067V66.706H88.7017Z" fill="#404040"/>
<path d="M94.9248 66.706H97.1019C97.7391 66.706 98.2701 66.8978 98.6949 67.2816C99.1197 67.6621 99.3321 68.1385 99.3321 68.7109C99.3321 69.3495 99.1055 69.8623 98.6524 70.2494C98.2028 70.6332 97.6063 70.8251 96.8629 70.8251H95.8806V73.4801H94.9248V66.706ZM95.8806 67.5V70.031H96.5974C97.7444 70.031 98.3179 69.6026 98.3179 68.7457C98.3179 68.2957 98.178 67.9764 97.8984 67.7878C97.6187 67.5959 97.1514 67.5 96.4965 67.5H95.8806Z" fill="#404040"/>
<path d="M107.897 66.5471C108.994 66.5471 109.856 66.8714 110.483 67.5199C111.109 68.165 111.423 69.0517 111.423 70.1799C111.423 71.2353 111.095 72.0906 110.44 72.7457C109.789 73.4007 108.939 73.7283 107.892 73.7283C106.808 73.7283 105.948 73.4107 105.311 72.7754C104.674 72.1369 104.355 71.2767 104.355 70.1948C104.355 69.1096 104.681 68.2312 105.332 67.5596C105.987 66.8846 106.842 66.5471 107.897 66.5471ZM107.897 67.2916C107.153 67.2916 106.546 67.5612 106.076 68.1005C105.605 68.6398 105.369 69.3362 105.369 70.1898C105.369 71.0335 105.603 71.7101 106.07 72.2196C106.538 72.7291 107.157 72.9839 107.929 72.9839C108.654 72.9839 109.249 72.7208 109.713 72.1948C110.177 71.6654 110.409 70.9872 110.409 70.16C110.409 69.2767 110.182 68.5786 109.729 68.0658C109.279 67.5496 108.669 67.2916 107.897 67.2916Z" fill="#404040"/>
<path d="M115.963 66.706H116.918V71.1328C116.918 71.2982 116.917 71.3974 116.913 71.4305L116.849 72.3635C116.839 72.4231 116.823 72.5108 116.802 72.6266C117.067 72.1402 117.317 71.7366 117.55 71.4156L120.97 66.706H122V73.4801H121.044V69.3362C121.044 68.7208 121.085 68.1286 121.166 67.5596C120.858 68.1022 120.595 68.5223 120.375 68.8201L116.971 73.4801H115.963V66.706ZM117.959 65.1278C118.058 65.6638 118.384 65.9318 118.936 65.9318C119.442 65.9318 119.772 65.6638 119.924 65.1278H120.742C120.508 66.0575 119.913 66.5223 118.957 66.5223C118.465 66.5223 118.049 66.3933 117.71 66.1352C117.37 65.8739 117.179 65.538 117.136 65.1278H117.959Z" fill="#404040"/>
</svg>
